<?xml version="1.0" encoding="UTF-8" standalone="no"?>
<!-- Created with Inkscape (http://www.inkscape.org/) -->

<svg
   xmlns:dc="http://purl.org/dc/elements/1.1/"
   xmlns:cc="http://creativecommons.org/ns#"
   xmlns:rdf="http://www.w3.org/1999/02/22-rdf-syntax-ns#"
   xmlns:svg="http://www.w3.org/2000/svg"
   xmlns="http://www.w3.org/2000/svg"
   xmlns:xlink="http://www.w3.org/1999/xlink"
   xmlns:sodipodi="http://sodipodi.sourceforge.net/DTD/sodipodi-0.dtd"
   xmlns:inkscape="http://www.inkscape.org/namespaces/inkscape"
   version="1.1"
   id="svg10"
   xml:space="preserve"
   width="200"
   height="200"
   viewBox="0 0 816 816"
   sodipodi:docname="grinchparty1.svg"
   inkscape:version="0.92.3 (2405546, 2018-03-11)"><metadata
     id="metadata16"><rdf:RDF><cc:Work
         rdf:about=""><dc:format>image/svg+xml</dc:format><dc:type
           rdf:resource="http://purl.org/dc/dcmitype/StillImage" /><dc:title></dc:title></cc:Work></rdf:RDF></metadata><defs
     id="defs14"><mask
       maskUnits="userSpaceOnUse"
       x="0"
       y="0"
       width="1"
       height="1"
       id="mask24"><image
         width="1"
         height="1"
         style="image-rendering:optimizeSpeed"
         preserveAspectRatio="none"
         xlink:href="file:///D:/akili/trans%20group/perf/grinch%20party_img0.png"
         id="image26"
         sodipodi:absref="D:\akili\trans group\perf\grinch party_img0.png" /></mask></defs><sodipodi:namedview
     pagecolor="#ffffff"
     bordercolor="#666666"
     borderopacity="1"
     objecttolerance="10"
     gridtolerance="10"
     guidetolerance="10"
     inkscape:pageopacity="0"
     inkscape:pageshadow="2"
     inkscape:window-width="1920"
     inkscape:window-height="1001"
     id="namedview12"
     showgrid="false"
     inkscape:zoom="0.99019608"
     inkscape:cx="408"
     inkscape:cy="408"
     inkscape:window-x="-9"
     inkscape:window-y="-9"
     inkscape:window-maximized="1"
     inkscape:current-layer="g18" /><g
     id="g18"
     inkscape:groupmode="layer"
     inkscape:label="grinch party"
     transform="matrix(1.3333333,0,0,-1.3333333,0,816)"><path
       d="M 0,0 H 612 V 612 H 0 Z"
       style="fill:#231f20;fill-opacity:1;fill-rule:nonzero;stroke:none"
       id="path20"
       inkscape:connector-curvature="0" /><g
       id="g22"
       transform="matrix(612,0,0,572.88,0,39.120003)"><image
         width="1"
         height="1"
         style="image-rendering:optimizeSpeed"
         preserveAspectRatio="none"
         transform="matrix(1,0,0,-1,0,1)"
         xlink:href="file:///D:/akili/trans%20group/perf/grinch%20party_img1.png"
         mask="url(#mask24)"
         id="image28"
         sodipodi:absref="D:\akili\trans group\perf\grinch party_img1.png" /></g><text
       transform="matrix(1,0,0,-1,13.1943,14.4131)"
       style="font-variant:normal;font-weight:normal;font-stretch:normal;font-size:15px;font-family:'Comic Sans MS';-inkscape-font-specification:ComicSansMS;writing-mode:lr-tb;fill:#ffffff;fill-opacity:1;fill-rule:nonzero;stroke:none"
       id="text32"><tspan
         x="0 10.965 18.780001 29.745001 37.935001 48.134998 52.619999 58.935001 63.419998 72.57 81.720001 90.870003 100.02 104.505 120.105 124.305 128.41499 135.72 144.39 148.59 155.78999 164.00999 168.495 177.94501 182.05499 189.345 198.14999 202.63499 215.28 219.765 228.91499 238.065 247.215 251.37 255.855 264.12 272.01001 279.315 283.79999 294.76501 302.60999 310.61249 318.83249 322.9425 331.16251 338.4675 342.6225 347.10751 356.1525 367.11749 371.60251 380.7525 389.9025 399.05249 405.80249 414.95251 419.4375 425.77499 430.26001 441.09 449.31 457.01999 461.505 470.655 477.405 481.89001 488.20499 492.69 499.44 506.19 513.87 525.52502 530.01001 536.25598 540.74103 549.89099 554.37598 562.401"
         y="0"
         sodipodi:role="line"
         id="tspan30">APAIT | 3055 Wilshire Blvd # 300, Los Angeles, CA 90010 | Dec 21 | 11am - 5 pm</tspan></text>
</g></svg>